<?xml version="1.0" encoding="UTF-8"?>
<!DOCTYPE svg PUBLIC "-//W3C//DTD SVG 1.1//EN" "http://www.w3.org/Graphics/SVG/1.1/DTD/svg11.dtd">
<svg xmlns="http://www.w3.org/2000/svg" version="1.1" width="1000px" height="999px" style="shape-rendering:geometricPrecision; text-rendering:geometricPrecision; image-rendering:optimizeQuality; fill-rule:evenodd; clip-rule:evenodd" xmlns:xlink="http://www.w3.org/1999/xlink">
<g><path style="opacity:1" fill="#f7fafb" d="M -0.5,-0.5 C 4.5,-0.5 9.5,-0.5 14.5,-0.5C 6.85918,3.80116 1.85918,10.1345 -0.5,18.5C -0.5,12.1667 -0.5,5.83333 -0.5,-0.5 Z"/></g>
<g><path style="opacity:1" fill="#3575af" d="M 14.5,-0.5 C 338.167,-0.5 661.833,-0.5 985.5,-0.5C 991.224,3.89171 995.891,9.22505 999.5,15.5C 999.5,100.167 999.5,184.833 999.5,269.5C 904.401,269.51 809.401,269.51 714.5,269.5C 713.833,269.833 713.167,270.167 712.5,270.5C 713.262,270.911 714.262,271.077 715.5,271C 714.316,272.145 714.316,273.312 715.5,274.5C 705.245,270.088 695.578,264.588 686.5,258C 668.084,249.233 650.417,239.233 633.5,228C 632.563,227.308 631.897,227.475 631.5,228.5C 622.521,219.507 611.854,213.341 599.5,210C 593.732,208.775 588.399,209.775 583.5,213C 578.714,218.735 574.548,224.901 571,231.5C 561.73,241.43 550.23,246.43 536.5,246.5C 518.998,245.293 502.998,239.793 488.5,230C 481.268,223.373 476.768,215.206 475,205.5C 480.263,186.838 473.763,175.005 455.5,170C 446.167,169.333 436.833,169.333 427.5,170C 418.294,171.845 410.794,176.345 405,183.5C 403.953,186.039 403.453,188.705 403.5,191.5C 409.978,214.57 403.645,233.07 384.5,247C 369.582,256.752 353.248,261.419 335.5,261C 328.412,260.083 322.078,257.416 316.5,253C 311.5,247.333 306.5,241.667 301.5,236C 296.398,233.657 291.064,232.99 285.5,234C 267.647,241.353 254.981,253.853 247.5,271.5C 245.833,276.386 244.667,276.386 244,271.5C 243.085,272.328 242.419,273.328 242,274.5C 241.667,272.833 241.333,271.167 241,269.5C 240.667,272.167 240.333,274.833 240,277.5C 239.517,276.552 239.351,275.552 239.5,274.5C 159.5,274.5 79.5,274.5 -0.5,274.5C -0.5,189.167 -0.5,103.833 -0.5,18.5C 1.85918,10.1345 6.85918,3.80116 14.5,-0.5 Z"/></g>
<g><path style="opacity:1" fill="#f7f9fa" d="M 985.5,-0.5 C 990.167,-0.5 994.833,-0.5 999.5,-0.5C 999.5,4.83333 999.5,10.1667 999.5,15.5C 995.891,9.22505 991.224,3.89171 985.5,-0.5 Z"/></g>
<g><path style="opacity:1" fill="#fdfefe" d="M 631.5,228.5 C 636.959,234.085 640.292,240.751 641.5,248.5C 641.589,252.067 640.755,255.4 639,258.5C 618.605,277.432 615.939,298.765 631,322.5C 638.219,335.385 648.385,345.219 661.5,352C 674.201,355.878 686.534,354.878 698.5,349C 703.257,348.19 707.924,348.524 712.5,350C 721.496,357.479 727.329,366.979 730,378.5C 732.555,389.751 731.888,400.751 728,411.5C 726.337,413.917 724.171,415.75 721.5,417C 692.802,418.365 675.968,433.198 671,461.5C 669.699,475.031 670.699,488.364 674,501.5C 677.065,508.796 681.898,514.629 688.5,519C 695.336,522.39 702.336,525.39 709.5,528C 715.246,531.993 717.913,537.493 717.5,544.5C 716.619,556.144 712.952,566.811 706.5,576.5C 669.847,540.347 633.347,504.014 597,467.5C 602.832,408.952 582.332,362.119 535.5,327C 495.693,302.066 453.36,296.732 408.5,311C 354.776,332.577 323.609,372.077 315,429.5C 312.213,497.131 341.046,545.631 401.5,575C 429.099,585.829 457.432,588.496 486.5,583C 521.667,618.167 556.833,653.333 592,688.5C 592.265,690.163 591.765,691.663 590.5,693C 576.913,703.418 561.579,708.418 544.5,708C 540.56,706.114 537.06,703.614 534,700.5C 529.992,678.494 517.158,664.994 495.5,660C 475.812,657.334 457.479,661.001 440.5,671C 429.684,681.472 423.851,694.305 423,709.5C 419.386,715.063 414.219,718.23 407.5,719C 388.44,720.949 371.94,715.449 358,702.5C 354.838,697.223 353.838,691.557 355,685.5C 364.818,667.577 363.485,650.577 351,634.5C 340.03,622.598 326.864,614.098 311.5,609C 300.235,605.973 289.568,607.306 279.5,613C 274.546,616.285 269.88,619.952 265.5,624C 258.667,627.481 252,627.147 245.5,623C 240.713,620.045 236.38,616.545 232.5,612.5C 227.327,605.496 223.161,597.829 220,589.5C 216.238,579.068 218.404,570.234 226.5,563C 233.114,560.857 238.781,557.357 243.5,552.5C 252.205,544.063 256.205,533.729 255.5,521.5C 255.375,506.529 251.708,492.529 244.5,479.5C 232.973,462.082 216.639,454.916 195.5,458C 189.359,455.859 185.193,451.693 183,445.5C 179.087,430.191 179.92,415.191 185.5,400.5C 191.024,387.599 200.357,383.766 213.5,389C 232.516,392.069 247.683,385.902 259,370.5C 262.705,364.423 265.872,358.09 268.5,351.5C 274.694,339.309 276.027,326.642 272.5,313.5C 271.404,308.642 269.238,304.309 266,300.5C 260.365,295.867 255.032,290.867 250,285.5C 247.896,281.078 247.063,276.412 247.5,271.5C 254.981,253.853 267.647,241.353 285.5,234C 291.064,232.99 296.398,233.657 301.5,236C 306.5,241.667 311.5,247.333 316.5,253C 322.078,257.416 328.412,260.083 335.5,261C 353.248,261.419 369.582,256.752 384.5,247C 403.645,233.07 409.978,214.57 403.5,191.5C 403.453,188.705 403.953,186.039 405,183.5C 410.794,176.345 418.294,171.845 427.5,170C 436.833,169.333 446.167,169.333 455.5,170C 473.763,175.005 480.263,186.838 475,205.5C 476.768,215.206 481.268,223.373 488.5,230C 502.998,239.793 518.998,245.293 536.5,246.5C 550.23,246.43 561.73,241.43 571,231.5C 574.548,224.901 578.714,218.735 583.5,213C 588.399,209.775 593.732,208.775 599.5,210C 611.854,213.341 622.521,219.507 631.5,228.5 Z"/></g>
<g><path style="opacity:1" fill="#224774" d="M 715.5,274.5 C 736.607,287.205 757.941,299.538 779.5,311.5C 803.17,325.337 827.17,338.67 851.5,351.5C 852.574,352.885 853.907,354.051 855.5,355C 903.434,382.462 951.434,409.628 999.5,436.5C 999.5,617.167 999.5,797.833 999.5,978.5C 996.349,987.816 990.016,993.983 980.5,997C 986.825,997.5 993.158,997.666 999.5,997.5C 999.5,997.833 999.5,998.167 999.5,998.5C 666.167,998.5 332.833,998.5 -0.5,998.5C -0.5,998.167 -0.5,997.833 -0.5,997.5C 5.5,997.5 11.5,997.5 17.5,997.5C 157.168,997.833 296.835,997.5 436.5,996.5C 431.918,986.767 426.751,977.434 421,968.5C 420.178,966.212 419.511,963.878 419,961.5C 403.864,936.481 390.031,910.647 377.5,884C 376.118,882.067 374.618,880.234 373,878.5C 368.123,867.744 362.956,857.077 357.5,846.5C 356.675,845.614 355.675,845.281 354.5,845.5C 354.489,843.453 354.156,841.453 353.5,839.5C 350.295,834.423 347.628,829.09 345.5,823.5C 341.194,818.557 338.194,812.89 336.5,806.5C 333.487,801.8 330.487,797.133 327.5,792.5C 326.69,790.202 325.856,787.868 325,785.5C 318.478,776.329 312.978,766.663 308.5,756.5C 296.852,734.539 285.185,712.539 273.5,690.5C 264.355,672.336 254.522,654.336 244,636.5C 240.897,628.622 237.064,621.289 232.5,614.5C 232.5,613.833 232.5,613.167 232.5,612.5C 236.38,616.545 240.713,620.045 245.5,623C 252,627.147 258.667,627.481 265.5,624C 269.88,619.952 274.546,616.285 279.5,613C 289.568,607.306 300.235,605.973 311.5,609C 326.864,614.098 340.03,622.598 351,634.5C 363.485,650.577 364.818,667.577 355,685.5C 353.838,691.557 354.838,697.223 358,702.5C 371.94,715.449 388.44,720.949 407.5,719C 414.219,718.23 419.386,715.063 423,709.5C 423.851,694.305 429.684,681.472 440.5,671C 457.479,661.001 475.812,657.334 495.5,660C 517.158,664.994 529.992,678.494 534,700.5C 537.06,703.614 540.56,706.114 544.5,708C 561.579,708.418 576.913,703.418 590.5,693C 591.765,691.663 592.265,690.163 592,688.5C 556.833,653.333 521.667,618.167 486.5,583C 457.432,588.496 429.099,585.829 401.5,575C 341.046,545.631 312.213,497.131 315,429.5C 323.609,372.077 354.776,332.577 408.5,311C 453.36,296.732 495.693,302.066 535.5,327C 582.332,362.119 602.832,408.952 597,467.5C 633.347,504.014 669.847,540.347 706.5,576.5C 712.952,566.811 716.619,556.144 717.5,544.5C 717.913,537.493 715.246,531.993 709.5,528C 702.336,525.39 695.336,522.39 688.5,519C 681.898,514.629 677.065,508.796 674,501.5C 670.699,488.364 669.699,475.031 671,461.5C 675.968,433.198 692.802,418.365 721.5,417C 724.171,415.75 726.337,413.917 728,411.5C 731.888,400.751 732.555,389.751 730,378.5C 727.329,366.979 721.496,357.479 712.5,350C 707.924,348.524 703.257,348.19 698.5,349C 686.534,354.878 674.201,355.878 661.5,352C 648.385,345.219 638.219,335.385 631,322.5C 615.939,298.765 618.605,277.432 639,258.5C 640.755,255.4 641.589,252.067 641.5,248.5C 640.292,240.751 636.959,234.085 631.5,228.5C 631.897,227.475 632.563,227.308 633.5,228C 650.417,239.233 668.084,249.233 686.5,258C 695.578,264.588 705.245,270.088 715.5,274.5 Z"/></g>
<g><path style="opacity:1" fill="#3471ac" d="M 247.5,271.5 C 247.063,276.412 247.896,281.078 250,285.5C 255.032,290.867 260.365,295.867 266,300.5C 269.238,304.309 271.404,308.642 272.5,313.5C 271.721,315.927 270.554,315.927 269,313.5C 268,314.833 267,314.833 266,313.5C 265.667,314.167 265.333,314.833 265,315.5C 263.991,313.975 263.491,312.308 263.5,310.5C 175.5,310.5 87.5,310.5 -0.5,310.5C -0.5,298.5 -0.5,286.5 -0.5,274.5C 79.5,274.5 159.5,274.5 239.5,274.5C 239.351,275.552 239.517,276.552 240,277.5C 240.333,274.833 240.667,272.167 241,269.5C 241.333,271.167 241.667,272.833 242,274.5C 242.419,273.328 243.085,272.328 244,271.5C 244.667,276.386 245.833,276.386 247.5,271.5 Z"/></g>
<g><path style="opacity:1" fill="#3472ad" d="M 999.5,269.5 C 999.5,283.167 999.5,296.833 999.5,310.5C 929.792,310.83 860.125,310.497 790.5,309.5C 789.059,310.304 787.559,310.971 786,311.5C 784.989,311.108 784.489,310.441 784.5,309.5C 782.805,310.174 781.138,310.841 779.5,311.5C 757.941,299.538 736.607,287.205 715.5,274.5C 714.316,273.312 714.316,272.145 715.5,271C 714.262,271.077 713.262,270.911 712.5,270.5C 713.167,270.167 713.833,269.833 714.5,269.5C 809.401,269.51 904.401,269.51 999.5,269.5 Z"/></g>
<g><path style="opacity:1" fill="#3370a9" d="M -0.5,310.5 C 87.5,310.5 175.5,310.5 263.5,310.5C 263.491,312.308 263.991,313.975 265,315.5C 265.333,314.833 265.667,314.167 266,313.5C 267,314.833 268,314.833 269,313.5C 270.554,315.927 271.721,315.927 272.5,313.5C 276.027,326.642 274.694,339.309 268.5,351.5C 268.217,350.711 267.717,350.044 267,349.5C 266.355,350.646 265.522,351.646 264.5,352.5C 176.169,353.5 87.8358,353.833 -0.5,353.5C -0.5,339.167 -0.5,324.833 -0.5,310.5 Z"/></g>
<g><path style="opacity:1" fill="#3370a9" d="M 999.5,310.5 C 999.5,324.833 999.5,339.167 999.5,353.5C 953.162,353.833 906.829,353.5 860.5,352.5C 857.597,349.645 854.263,348.812 850.5,350C 851.056,350.383 851.389,350.883 851.5,351.5C 827.17,338.67 803.17,325.337 779.5,311.5C 781.138,310.841 782.805,310.174 784.5,309.5C 784.489,310.441 784.989,311.108 786,311.5C 787.559,310.971 789.059,310.304 790.5,309.5C 860.125,310.497 929.792,310.83 999.5,310.5 Z"/></g>
<g><path style="opacity:1" fill="#fdfefe" d="M 450.5,351.5 C 474.437,350.52 497.104,355.354 518.5,366C 545.291,384.905 559.291,410.905 560.5,444C 560.02,454.332 558.854,464.498 557,474.5C 606.167,523.667 655.333,572.833 704.5,622C 743.715,612.856 777.548,622.356 806,650.5C 817.648,665.479 824.648,682.479 827,701.5C 828.351,709.797 828.684,718.13 828,726.5C 826.257,733.53 822.09,735.364 815.5,732C 804.804,720.97 793.804,710.303 782.5,700C 773.564,695.025 764.897,695.358 756.5,701C 741.604,715.227 727.437,730.061 714,745.5C 711.349,753.335 712.349,760.669 717,767.5C 727.333,777.833 737.667,788.167 748,798.5C 751.382,802.625 751.216,806.458 747.5,810C 721.874,813.808 697.874,809.142 675.5,796C 648.87,775.738 635.536,748.738 635.5,715C 635.098,706.811 636.098,698.811 638.5,691C 638.375,689.373 637.875,687.873 637,686.5C 587.834,638.334 539.001,589.834 490.5,541C 448.074,551.079 412.907,539.579 385,506.5C 372.075,484.323 366.408,460.323 368,434.5C 371.419,428.789 375.919,427.955 381.5,432C 391.833,442.333 402.167,452.667 412.5,463C 421.709,467.881 430.709,467.548 439.5,462C 454.063,448.106 467.896,433.606 481,418.5C 483.273,411.334 482.94,404.334 480,397.5C 468.667,385.5 457.333,373.5 446,361.5C 444.571,356.783 446.071,353.45 450.5,351.5 Z"/></g>
<g><path style="opacity:1" fill="#326ca5" d="M 999.5,353.5 C 999.5,381.167 999.5,408.833 999.5,436.5C 951.434,409.628 903.434,382.462 855.5,355C 853.907,354.051 852.574,352.885 851.5,351.5C 851.389,350.883 851.056,350.383 850.5,350C 854.263,348.812 857.597,349.645 860.5,352.5C 906.829,353.5 953.162,353.833 999.5,353.5 Z"/></g>
<g><path style="opacity:1" fill="#326ca6" d="M 268.5,351.5 C 265.872,358.09 262.705,364.423 259,370.5C 247.683,385.902 232.516,392.069 213.5,389C 200.357,383.766 191.024,387.599 185.5,400.5C 185.196,399.85 184.863,399.183 184.5,398.5C 122.837,397.5 61.1703,397.167 -0.5,397.5C -0.5,382.833 -0.5,368.167 -0.5,353.5C 87.8358,353.833 176.169,353.5 264.5,352.5C 265.522,351.646 266.355,350.646 267,349.5C 267.717,350.044 268.217,350.711 268.5,351.5 Z"/></g>
<g><path style="opacity:1" fill="#3168a1" d="M -0.5,397.5 C 61.1703,397.167 122.837,397.5 184.5,398.5C 184.863,399.183 185.196,399.85 185.5,400.5C 179.92,415.191 179.087,430.191 183,445.5C 185.193,451.693 189.359,455.859 195.5,458C 216.639,454.916 232.973,462.082 244.5,479.5C 243.25,479.577 242.417,480.244 242,481.5C 240.211,477.513 237.045,475.68 232.5,476C 154.834,475.5 77.1674,475.333 -0.5,475.5C -0.5,449.5 -0.5,423.5 -0.5,397.5 Z"/></g>
<g><path style="opacity:1" fill="#30639c" d="M -0.5,475.5 C 77.1674,475.333 154.834,475.5 232.5,476C 237.045,475.68 240.211,477.513 242,481.5C 242.417,480.244 243.25,479.577 244.5,479.5C 251.708,492.529 255.375,506.529 255.5,521.5C 256.205,533.729 252.205,544.063 243.5,552.5C 243.854,550.459 243.854,548.626 243.5,547C 244.167,546.333 244.833,545.667 245.5,545C 243.598,544.801 242.098,543.967 241,542.5C 240.667,543.167 240.333,543.833 240,544.5C 159.904,543.502 79.7374,543.168 -0.5,543.5C -0.5,520.833 -0.5,498.167 -0.5,475.5 Z"/></g>
<g><path style="opacity:1" fill="#2f5f98" d="M 243.5,552.5 C 238.781,557.357 233.114,560.857 226.5,563C 218.404,570.234 216.238,579.068 220,589.5C 223.161,597.829 227.327,605.496 232.5,612.5C 232.5,613.167 232.5,613.833 232.5,614.5C 154.844,613.527 77.1776,613.194 -0.5,613.5C -0.5,590.167 -0.5,566.833 -0.5,543.5C 79.7374,543.168 159.904,543.502 240,544.5C 240.333,543.833 240.667,543.167 241,542.5C 242.098,543.967 243.598,544.801 245.5,545C 244.833,545.667 244.167,546.333 243.5,547C 243.854,548.626 243.854,550.459 243.5,552.5 Z"/></g>
<g><path style="opacity:1" fill="#2d5a92" d="M -0.5,613.5 C 77.1776,613.194 154.844,613.527 232.5,614.5C 237.064,621.289 240.897,628.622 244,636.5C 254.522,654.336 264.355,672.336 273.5,690.5C 273.25,691.922 272.417,692.922 271,693.5C 180.593,693.48 90.093,693.48 -0.5,693.5C -0.5,666.833 -0.5,640.167 -0.5,613.5 Z"/></g>
<g><path style="opacity:1" fill="#2c568c" d="M 273.5,690.5 C 285.185,712.539 296.852,734.539 308.5,756.5C 306.855,755.521 305.521,754.188 304.5,752.5C 303.614,753.325 303.281,754.325 303.5,755.5C 202.167,755.5 100.833,755.5 -0.5,755.5C -0.5,734.833 -0.5,714.167 -0.5,693.5C 90.093,693.48 180.593,693.48 271,693.5C 272.417,692.922 273.25,691.922 273.5,690.5 Z"/></g>
<g><path style="opacity:1" fill="#2b5289" d="M 308.5,756.5 C 312.978,766.663 318.478,776.329 325,785.5C 325.856,787.868 326.69,790.202 327.5,792.5C 327.5,794.167 327.5,795.833 327.5,797.5C 325.409,797.682 323.409,797.348 321.5,796.5C 320.692,796.808 320.025,797.308 319.5,798C 322.167,798.333 324.833,798.667 327.5,799C 328.167,801 328.833,803 329.5,805C 329.167,805.167 328.833,805.333 328.5,805.5C 327.571,804.311 327.238,802.978 327.5,801.5C 218.167,801.5 108.833,801.5 -0.5,801.5C -0.5,786.167 -0.5,770.833 -0.5,755.5C 100.833,755.5 202.167,755.5 303.5,755.5C 303.281,754.325 303.614,753.325 304.5,752.5C 305.521,754.188 306.855,755.521 308.5,756.5 Z"/></g>
<g><path style="opacity:1" fill="#2b5085" d="M 327.5,792.5 C 330.487,797.133 333.487,801.8 336.5,806.5C 338.194,812.89 341.194,818.557 345.5,823.5C 347.628,829.09 350.295,834.423 353.5,839.5C 354.156,841.453 354.489,843.453 354.5,845.5C 355.675,845.281 356.675,845.614 357.5,846.5C 362.956,857.077 368.123,867.744 373,878.5C 374.618,880.234 376.118,882.067 377.5,884C 390.031,910.647 403.864,936.481 419,961.5C 419.511,963.878 420.178,966.212 421,968.5C 426.751,977.434 431.918,986.767 436.5,996.5C 296.835,997.5 157.168,997.833 17.5,997.5C 13.297,995.472 9.46363,992.805 6,989.5C 3.53607,985.566 1.36941,981.566 -0.5,977.5C -0.5,918.833 -0.5,860.167 -0.5,801.5C 108.833,801.5 218.167,801.5 327.5,801.5C 327.238,802.978 327.571,804.311 328.5,805.5C 328.833,805.333 329.167,805.167 329.5,805C 328.833,803 328.167,801 327.5,799C 324.833,798.667 322.167,798.333 319.5,798C 320.025,797.308 320.692,796.808 321.5,796.5C 323.409,797.348 325.409,797.682 327.5,797.5C 327.5,795.833 327.5,794.167 327.5,792.5 Z"/></g>
<g><path style="opacity:1" fill="#f5f7f9" d="M -0.5,977.5 C 1.36941,981.566 3.53607,985.566 6,989.5C 9.46363,992.805 13.297,995.472 17.5,997.5C 11.5,997.5 5.5,997.5 -0.5,997.5C -0.5,990.833 -0.5,984.167 -0.5,977.5 Z"/></g>
<g><path style="opacity:1" fill="#f6f8f9" d="M 999.5,978.5 C 999.5,984.833 999.5,991.167 999.5,997.5C 993.158,997.666 986.825,997.5 980.5,997C 990.016,993.983 996.349,987.816 999.5,978.5 Z"/></g>
</svg>
